<svg xmlns="http://www.w3.org/2000/svg" width="333.3" height="60" viewBox="159 0 333.3 60" enable-background="new 159 0 333.3 60"><path fill="#fff" d="M252.3 39.8c-5.1 0-8.3-3.1-8.3-9.5s3.2-9.5 8.3-9.5c1.9 0 3.8.6 5.4 1.6l3.1-6.1c-2.8-1.4-5.9-2.3-9.2-2.3-9.7 0-16.6 5.9-16.6 16.2s6.9 16.2 16.6 16.2c2.8 0 5.5-.6 7.9-1.7l-3.1-6c-1.2.8-2.6 1.1-4.1 1.1zm139.3-10.5c1.3 0 2.5.5 3.4 1.4l1.8-5.3c-1.9-1.2-4.3-1.8-6.8-1.8-6.6 0-12 4.2-12 11.3s5.4 11.3 12 11.3c2.5 0 4.9-.6 6.8-1.8l-1.8-5.3c-.9.9-2.1 1.4-3.4 1.4-2.8 0-5-1.6-5-5.7 0-3.8 2.2-5.5 5-5.5zm-118.8-5.6c-6.6 0-12 4.2-12 11.3s5.4 11.3 12 11.3 12-4.2 12-11.3-5.3-11.3-12-11.3zm0 17.7c-1.9 0-3.5-2.3-3.5-6.4s1.5-6.4 3.5-6.4c1.9 0 3.5 2.3 3.5 6.4 0 4-1.6 6.4-3.5 6.4zm166.3-17.7c-6.6 0-12 4.2-12 11.3s5.4 11.3 12 11.3 12-4.2 12-11.3-5.4-11.3-12-11.3zm0 17.7c-1.9 0-3.5-2.3-3.5-6.4s1.5-6.4 3.5-6.4 3.5 2.3 3.5 6.4c0 4-1.6 6.4-3.5 6.4zm26.6-17.7c-6.6 0-12 4.2-12 11.3s5.4 11.3 12 11.3 12-4.2 12-11.3-5.3-11.3-12-11.3zm0 17.7c-1.9 0-3.5-2.3-3.5-6.4s1.5-6.4 3.5-6.4 3.5 2.3 3.5 6.4c0 4-1.6 6.4-3.5 6.4zM329.2 41c-2.1 0-3.4-1.2-3.9-3.5 7.1.2 11.6-2.7 11.6-7 0-4.1-3.8-6.9-8.4-6.9-6.6 0-12 4.2-12 11.3s4.8 11.3 11.4 11.3c6.3 0 10-4.8 10-4.8l-2.2-3.6c0 .1-3.2 3.2-6.5 3.2zm-.7-12.4c1.2 0 1.8 1 1.8 2.1 0 1.9-1.3 3.1-5.2 3.3.2-3.4 1.6-5.4 3.4-5.4zm-17.3 9.3V13.4H303v13.8c-1.6-2.3-4-3.5-6.6-3.5-4.9 0-8.8 4.2-8.8 11.3s4 11.3 8.8 11.3c2.9 0 5.5-1.5 7.1-4.3 1 3.1 3.6 4.3 6.4 4.3 2.8 0 4.2-.8 4.2-.8l.5-5.9c0 .1-3.4 2-3.4-1.7zm-11.6 3.2c-1.9 0-3.5-2.2-3.5-6.1s1.5-6.1 3.5-6.1 3.5 2.2 3.5 6.1c-.1 3.8-1.6 6.1-3.5 6.1zm122-3.2v-8.2c0-3.7-1.3-6-5.2-6-3.1 0-5.9 1.6-7.4 4.3V13.4h-8.2v32.3h8.2V38c0-7.1 2.2-9 3.5-9 .9 0 1.3.6 1.3 2.1v7.7c0 5.6 3.1 7.6 6.7 7.6 2.8 0 4.2-.8 4.2-.8l.5-5.9c.1 0-3.6 1.7-3.6-1.8zm67.3 0V13.4h-8.2v25.3c0 5.6 3.3 7.6 6.9 7.6 2.8 0 4.2-.8 4.2-.8l.5-5.9c0 .1-3.4 2-3.4-1.7zM366.8 26.7c-5-1.8-6.1-2.3-6.1-4.1 0-1.6 1.1-2.5 2.8-2.5 4.1 0 9.1 2.7 9.1 2.7l2.3-5.3s-3.7-3.4-10.8-3.4c-7.7 0-11.6 4-11.6 9.4 0 3.9 1.9 7.5 8.3 9.6 4.9 1.6 5.9 2.8 5.9 4.3 0 2-1.4 2.8-3.7 2.8-4.6 0-10-3.5-10-3.5l-2.7 5.4s5.4 4.4 12.7 4.4c8.1 0 12.3-4.1 12.3-10-.1-4.4-1.3-7.2-8.5-9.8zM192.3 14v7.7L201 30l-8.7 8.3V46l16.9-16-16.9-16zm-6.6 24.3L177 30l8.7-8.3V14l-16.9 16 16.9 16v-7.7zM189 0c-16.6 0-30 13.4-30 30s13.4 30 30 30 30-13.4 30-30-13.4-30-30-30zm0 54.6c-13.6 0-24.6-11-24.6-24.6s11-24.6 24.6-24.6 24.6 11 24.6 24.6-11 24.6-24.6 24.6z"/></svg>