<svg xmlns="http://www.w3.org/2000/svg" width="181" height="188"><path d="M158.021 176.686h-2.014v7.961h2.014c1.381 0 2.347-.754 2.347-2.094v-3.771c0-1.321-.966-2.096-2.347-2.096z" fill="none"/><path d="M114.52 151.587c-.603-5.171-3.059-18.022-12.767-24.907-1.897-.09-3.608-.146-5.08-.179 4.736 10.447 4.951 20.592 4.751 25.086h13.096z" fill="none"/><path d="M133.448 151.587h11.819c-.975-4.426-4.61-14.34-17.914-21.884-2.438-.499-4.883-.928-7.299-1.286 9.626 7.926 12.562 18.694 13.394 23.17z" fill="none"/><path d="M148.41 151.587h10.984c-1.283-10.086-11.408-16.124-23.487-19.747 9.129 7.547 11.762 15.905 12.503 19.747z" fill="none"/><path d="M171.536 176.371c-1.363 0-2.329.777-2.329 2.117v4.357c0 1.342.966 2.114 2.329 2.114 1.381 0 2.343-.772 2.343-2.114v-4.357c0-1.34-.962-2.117-2.343-2.117z" fill="none"/><path d="M9.334 177.005h-1.993v7.896h1.993c1.37 0 2.327-.75 2.327-2.08v-3.734c0-1.312-.957-2.082-2.327-2.082z" fill="none"/><polygon points="128.502,182.342 131.645,182.342 130.07,177.711" fill="none"/><path d="M104.62 176.729h-2.788v3.414c1.025.058 1.751.072 2.264.064l.043-.002h.09c.477-.012.748-.044.899-.073.788-.207 1.417-.825 1.417-1.623 0-1.09-.837-1.78-1.925-1.78z" fill="none"/><path d="M90.245 176.371c-1.358 0-2.32.777-2.32 2.117v4.357c0 1.342.962 2.114 2.32 2.114 1.387 0 2.347-.772 2.347-2.114v-4.357c0-1.34-.96-2.117-2.347-2.117z" fill="none"/><path d="M82.175 126.561c-.901.039-1.796.09-2.691.144-9.681 6.89-12.129 19.719-12.731 24.883h13.094c-.201-4.496.013-14.644 4.751-25.092-.746.014-1.547.033-2.423.065z" fill="none"/><path d="M45.521 131.71c-12.266 3.606-22.621 9.672-23.917 19.877h11.255c.753-3.862 3.409-12.296 12.662-19.877z" fill="none"/><path d="M36.026 151.587h11.797c.831-4.463 3.746-15.183 13.305-23.101-2.254.293-3.63.5-3.681.507l-.524.08c-.948.168-1.889.348-2.836.538-13.312 7.507-17.04 17.537-18.061 21.976z" fill="none"/><path d="M92.225 122.055c10.469-.365 23.532 1.028 30.504 1.91-.287-1.138-.444-2.343-.596-3.494-.346-2.658-.705-5.406-2.388-6.9-2.103-1.857-11.365-2.984-21.063-3.324l-.004.043h-13.997c-9.29.384-17.946 1.494-19.967 3.281-1.688 1.494-2.046 4.242-2.395 6.9-.143 1.098-.298 2.245-.557 3.336 7.752-1.08 15.112-1.516 20.721-1.673 3.326-.142 6.647-.189 9.742-.079z" fill="none"/><polygon points="5.254,155.99 8.055,162.219 172.943,162.219 175.743,155.99 17.06,155.99" fill="none"/><path d="M130.285 151.587c-1.076-5.058-4.834-17.101-16.86-24.014-2.264-.243-4.448-.437-6.507-.587 8.202 8.041 10.223 19.785 10.715 24.601h12.652z" fill="none"/><path d="M82.942 151.586h15.388c.186-4.289-.008-14.791-5.086-25.127l-.292-.002-.7.002-.027.001-.021-.001c-1.044.006-1.627.02-1.642.02-.143 0-1.003-.021-2.516-.021h-.019c-5.088 10.358-5.273 20.847-5.085 25.128z" fill="none"/><path d="M94.479 105.668c1.488-13.412 11.063-83.107 49.59-89.51-9.771-4.796-29.071-12.285-53.5-11.592-1.2-.032-2.26-.046-3.301-.046-22.955 0-41.022 7.048-50.348 11.633 38.706 6.382 49.398 76.194 51.09 89.515h6.469z" fill="none"/><path d="M50.989 151.587h12.651c.488-4.795 2.498-16.469 10.617-24.506-2.361.196-4.61.418-6.656.64-11.832 6.933-15.545 18.841-16.612 23.866z" fill="none"/><path d="M180.562 152.878c-.523-.808-1.445-1.291-2.471-1.291h-14.27c-1.375-14.226-16.092-21.646-32.188-25.483l-3.513-1.344c-.971-.367-1.271-2.164-1.625-4.859-.406-3.137-.913-7.041-3.835-9.629-3.556-3.146-15.003-4.137-23.541-4.428 1.668-13.96 12.096-85.539 50.746-85.539.756 0 1.521.028 2.295.082l8.646.607-7.195-4.83c-.988-.665-24.643-16.265-59.879-16.265-1.09 0-2.188.016-3.166.045-37.032-1.004-62.155 15.535-63.175 16.22l-7.196 4.83 8.646-.607c40.564-2.852 52.609 71.419 54.527 85.534-8.242.374-18.284 1.438-21.576 4.351-2.921 2.59-3.428 6.492-3.839 9.629-.319 2.468-.604 4.164-1.392 4.722-18.648 3.276-37.808 10.636-39.388 26.966h-14.263c-1.03 0-1.949.482-2.473 1.291-.521.811-.577 1.848-.161 2.778l3.917 8.706c.59 1.308 2.065 2.259 3.498 2.259h165.618c1.432 0 2.906-.951 3.5-2.263l3.916-8.699c.416-.936.358-1.973-.163-2.783zm-21.167-1.291h-10.985c-.741-3.842-3.374-12.2-12.503-19.747 12.079 3.623 22.204 9.661 23.488 19.747zm-32.041-21.884c13.304 7.544 16.939 17.458 17.914 21.884h-11.819c-.832-4.476-3.769-15.244-13.394-23.17 2.416.358 4.86.787 7.299 1.286zm-30.681-3.202c1.472.033 3.183.089 5.08.179 9.708 6.885 12.164 19.736 12.767 24.907h-13.096c.2-4.494-.015-14.639-4.751-25.086zm-16.826 25.086h-13.094c.602-5.164 3.05-17.993 12.731-24.883.895-.054 1.79-.104 2.691-.144.876-.031 1.677-.051 2.423-.065-4.738 10.448-4.952 20.596-4.751 25.092zm-16.207 0h-12.651c1.067-5.024 4.78-16.933 16.612-23.866 2.046-.222 4.295-.443 6.656-.64-8.119 8.037-10.129 19.711-10.617 24.506zm24.387-25.129h.019c1.513 0 2.373.021 2.516.021.015 0 .598-.014 1.642-.02l.021.001.027-.001.7-.002.292.002c5.078 10.336 5.271 20.838 5.086 25.127h-15.388v.001c-.188-4.282-.003-14.771 5.085-25.129zm18.891.528c2.059.15 4.243.344 6.507.587 12.026 6.913 15.784 18.956 16.86 24.014h-12.652c-.492-4.816-2.513-16.56-10.715-24.601zm-69.999-110.833c9.326-4.585 27.393-11.633 50.348-11.633 1.041 0 2.101.014 3.301.046 24.429-.693 43.73 6.796 53.5 11.592-38.526 6.403-48.102 76.098-49.59 89.51h-6.47c-1.691-13.321-12.383-83.133-51.089-89.515zm25.4 104.318c.349-2.658.707-5.406 2.395-6.9 2.021-1.787 10.677-2.897 19.967-3.281h13.997l.004-.043c9.698.34 18.961 1.467 21.063 3.324 1.683 1.494 2.042 4.242 2.388 6.9.151 1.151.309 2.356.596 3.494-6.972-.882-20.035-2.275-30.504-1.91-3.095-.109-6.416-.062-9.742.079-5.609.157-12.969.593-20.721 1.673.259-1.091.414-2.239.557-3.336zm-5.396 8.602l.524-.08c.051-.007 1.427-.214 3.681-.507-9.559 7.918-12.474 18.638-13.305 23.101h-11.797c1.021-4.438 4.749-14.469 18.061-21.976.947-.19 1.888-.37 2.836-.538zm-11.402 2.637c-9.253 7.581-11.909 16.015-12.662 19.877h-11.255c1.296-10.205 11.651-16.271 23.917-19.877zm127.422 30.509h-164.888l-2.801-6.229h170.489l-2.8 6.229z"/><path d="M9.334 174.121h-4.651c-.479 0-.604.227-.604.602v12.463c.001.373.125.601.604.601h4.651c2.471 0 5.589-1.413 5.589-4.671v-4.323c0-3.238-3.118-4.672-5.589-4.672zm2.327 8.699c0 1.33-.957 2.08-2.327 2.08h-1.993v-7.896h1.993c1.37 0 2.327.771 2.327 2.081v3.735z"/><path d="M27.488 184.879h-6.627v-2.742h5.568c.478 0 .602-.227.602-.601v-1.622c0-.374-.124-.604-.602-.604h-5.568v-2.264h6.273c.478 0 .604-.229.604-.602v-1.727c0-.373-.126-.601-.604-.601h-8.953c-.476 0-.601.228-.601.601v12.463c0 .375.125.603.601.603h9.307v.002c.478 0 .601-.228.601-.603v-1.703c0-.372-.123-.6-.601-.6z"/><path d="M37.038 179.852c-.828-.332-3.884-.787-3.884-2.056 0-.937 1.145-1.204 1.832-1.204.623 0 1.368.186 1.764.562.251.244.354.41.439.619.102.271.163.562.556.562h2.038c.476 0 .602-.084.602-.583 0-2.74-2.884-3.945-5.524-3.945-2.597.104-5.048 1.434-5.048 4.133 0 2.639 1.932 3.469 4.031 4.135 1.766.562 3.611.58 3.611 1.744 0 1.162-.912 1.414-2.031 1.414-.771 0-1.622-.188-2.04-.688-.268-.312-.373-.581-.394-.852-.041-.521-.269-.58-.746-.58h-2.017c-.474 0-.604.102-.604.58 0 2.906 2.992 4.404 5.591 4.404 3.199.004 5.526-1.41 5.526-4.361 0-2.826-2.202-3.425-3.702-3.884z"/><path d="M49.106 184.939h-1.308v-7.937h1.248c.478 0 .6-.228.6-.601v-1.684c0-.374-.122-.601-.6-.601h-5.776c-.478 0-.6.227-.6.601v1.684c0 .373.122.601.6.601h1.268v7.937h-1.309c-.477 0-.603.229-.603.604v1.641c0 .375.126.603.603.603h5.877c.479 0 .605-.228.605-.603v-1.641c0-.375-.126-.604-.605-.604z"/><path d="M57.557 176.695c1.394 0 2.142.627 2.372 1.269.103.29.021.706.602.706h2.013c.478 0 .605-.085.605-.583 0-2.782-2.992-4.278-5.592-4.278-2.45 0-5.582 1.396-5.582 4.676v5.108c0 3.261 3.132 4.509 5.582 4.509 2.372 0 5.403-1.332 5.592-4.322v-3.012c0-.375-.128-.604-.605-.604h-4.546c-.477 0-.605.229-.605.604v1.619c0 .374.129.604.605.604h1.867c0 1.599-.954 2.223-2.308 2.223-1.368 0-2.283-.77-2.283-2.097v-4.179c0-1.329.915-2.243 2.283-2.243z"/><path d="M76.293 174.12h-1.993c-.374 0-.604.124-.604.601v7.209l-4.401-7.104c-.272-.416-.417-.706-.937-.706h-1.954c-.475 0-.599.228-.599.601v12.463c0 .479.224.603.599.603h2.062c.374 0 .599-.124.599-.603v-7.227l4.403 7.121c.273.419.417.708.936.708h1.889c.48 0 .604-.228.604-.603v-12.463c0-.476-.229-.6-.604-.6z"/><path d="M90.245 173.458c-2.488 0-5.592 1.425-5.592 4.737v4.943c0 3.311 3.104 4.734 5.592 4.734 2.496 0 5.642-1.425 5.642-4.734v-4.943c0-3.312-3.147-4.737-5.642-4.737zm2.347 9.388c0 1.342-.96 2.114-2.347 2.114-1.358 0-2.32-.772-2.32-2.114v-4.357c0-1.34.962-2.117 2.32-2.117 1.387 0 2.347.777 2.347 2.117v4.357z"/><path d="M106.902 182.596c1.302-.443 2.918-1.972 2.918-4.171 0-1.341-.445-2.534-1.217-3.29-.881-.88-1.89-1.339-4.172-1.339h-5.281c-.479 0-.586.228-.586.604v12.552c0 .481.209.608.586.608h2.078c.371 0 .604-.127.604-.608v-3.866c.657-.018 1.601-.033 1.854.367l.072.105 2.264 3.373c.295.44.545.629 1.045.629h2.477c.396 0 .498-.377.312-.672l-2.954-4.292zm-1.774-2.464c-.151.029-.423.062-.899.073h-.09l-.043.002c-.513.008-1.238-.007-2.264-.064v-3.414h2.788c1.088 0 1.925.69 1.925 1.78 0 .798-.629 1.416-1.417 1.623z"/><path d="M121.843 184.624h-6.036v-10.244c0-.479-.23-.606-.608-.606h-2.075c-.377 0-.605.127-.605.606v12.572c0 .377.127.608.605.608h8.721c.48 0 .604-.231.604-.608v-1.718c-.004-.379-.126-.61-.606-.61z"/><path d="M131.939 174.423c-.188-.44-.398-.649-.862-.649h-2.009c-.463 0-.691.209-.857.649l-4.656 12.552c-.101.252-.101.586.358.586h2.2c.461 0 .63-.127.797-.629l.586-1.652h5.134l.585 1.652c.167.502.336.629.799.629h2.197c.464 0 .464-.334.357-.586l-4.629-12.552zm-3.437 7.919l1.568-4.631 1.574 4.631h-3.142z"/><path d="M149.014 173.773h-2.014c-.376 0-.604.125-.604.605v7.271l-4.445-7.164c-.271-.422-.419-.713-.941-.713h-1.972c-.481 0-.604.229-.604.605v12.572c0 .48.229.607.604.607h2.075c.38 0 .609-.127.609-.607v-7.292l4.44 7.188c.274.418.421.711.944.711h1.904c.482 0 .61-.23.61-.607v-12.569c.004-.482-.227-.607-.606-.607z"/><path d="M158.021 173.773h-4.692c-.483 0-.608.229-.608.605v12.572c0 .377.125.607.608.607h4.692c2.492 0 5.636-1.425 5.636-4.715v-4.357c0-3.266-3.143-4.712-5.636-4.712zm2.347 8.78c0 1.34-.966 2.094-2.347 2.094h-2.014v-7.961h2.014c1.381 0 2.347.775 2.347 2.097v3.77z"/><path d="M171.536 173.458c-2.495 0-5.597 1.425-5.597 4.737v4.943c0 3.311 3.102 4.734 5.597 4.734 2.491 0 5.634-1.425 5.634-4.734v-4.943c0-3.312-3.143-4.737-5.634-4.737zm2.343 9.388c0 1.342-.962 2.114-2.343 2.114-1.363 0-2.329-.772-2.329-2.114v-4.357c0-1.34.966-2.117 2.329-2.117 1.381 0 2.343.777 2.343 2.117v4.357z"/></svg>