<svg xmlns="http://www.w3.org/2000/svg" width="160" height="59.1" viewBox="72 0.9 160 59.1" enable-background="new 72 0.9 160 59.1"><path fill="#fff" d="M149.2 28.4v-12c0-8.3-6.4-15.2-14.4-15.4h-.6c-4.1.2-7.5 1.9-9.9 4.7V2.2h-14.9v3.5h1.1c1.3 0 2.4.9 2.4 2.4v20.5c0 1.3-.9 2.4-2.4 2.4h-2.4v5.6h19.3V31h-1.1c-1.3 0-2.4-.9-2.4-2.4V15c0-4.4 3.6-8 8-8 3.1 0 5.6 3.6 5.6 8v13.6c0 1.3-.9 2.4-2.4 2.4H134v5.6h19.3V31h-2.4c-.7-.4-1.7-1.3-1.7-2.6zm82.2-26.2h-17.1v3.5h3.1c1.3 0 1.9.9 1.4 2.2l-2.3 5.8-5.8 14.6-6.1-20.4c-.3-1.3.3-2.4 1.6-2.4h2.4V2.2h-33.1v3.5h1.3c1.3 0 2 .9 1.6 2.4l-5.6 20.5-5.6-20.5c-.3-1.3.3-2.4 1.6-2.4h2.4V2.2h-21.6v3.5h2.2c1.3 0 2.5.9 3 2.2l8.5 28.4h12.5l8.6-28.5c.5-1.3 1.7-2.2 3-2.2h2.4c1.3 0 2.5.9 3 2.2l8.6 28.5 3 9.7-1.6 3.9c-1.4 2.8-4.1 4.5-7.2 4.5-1.9 0-3.8-.6-5.2-1.7-.3-.2-.9-.9-1.6-2.2 1.9-.9 3.3-2.8 3.3-5.2 0-3.1-2.5-5.6-5.6-5.6s-5.6 2.5-5.6 5.6c0 8.2 6.6 14.7 14.7 14.7 6.6 0 12.2-4.4 14.1-10.4l.9-2.4 16-39.8c.5-1.3 1.9-2.4 3.1-2.4h2.5l-.8-2.8zM90.1 1c-10 0-18.2 8.2-18.2 18.2s8.2 18.2 18.2 18.2c8 0 14.9-5.2 17.3-12.5h-8.2c-1.6 3.5-4.5 5.3-7.7 5.3-2.7 0-5-1.6-6.6-3.9-.2-.2-.2-.3-.2-.5-1.5-2.2-1.8-4.9-1.8-4.9h25.3v-1.6C108.3 9.2 100.1 1 90.1 1zm8.8 14.9H83.4c0-5 3.6-9.1 8-9.1s8 4.1 8 9.1h-.5z"/></svg>