<svg xmlns="http://www.w3.org/2000/svg" width="181" height="188" viewBox="83 -64 181 188" enable-background="new 83 -64 181 188"><g fill="#fff"><path d="M263.7 89c-.5-.8-1.4-1.3-2.5-1.3h-14.3c-1.4-14.2-16.1-21.6-32.2-25.5l-3.5-1.3c-1-.4-1.3-2.2-1.6-4.9-.4-3.1-.9-7-3.8-9.6-3.6-3.1-15-4.1-23.5-4.4 1.7-14 12.1-85.5 50.7-85.5.8 0 1.5 0 2.3.1l8.6.6-7.2-4.8c-1-.8-24.6-16.4-59.9-16.4h-3.2c-37-1-62.2 15.5-63.2 16.2l-7.2 4.8 8.6-.6c40.6-2.9 52.6 71.4 54.5 85.5-8.2.4-18.3 1.4-21.6 4.4-2.9 2.6-3.4 6.5-3.8 9.6-.3 2.5-.6 4.2-1.4 4.7-18.6 3.3-37.8 10.6-39.4 27H85.8c-1 0-1.9.5-2.5 1.3-.5.8-.6 1.8-.2 2.8l3.9 8.7c.6 1.3 2.1 2.3 3.5 2.3h165.9c1.4 0 2.9-1 3.5-2.3l3.9-8.7c.4-.9.4-1.9-.1-2.7zm-21.2-1.3h-11c-.7-3.8-3.4-12.2-12.5-19.7 12.1 3.6 22.2 9.6 23.5 19.7zm-32-21.9c13.3 7.5 16.9 17.5 17.9 21.9h-11.9c-.8-4.5-3.8-15.2-13.4-23.2 2.5.4 4.9.8 7.4 1.3zm-30.7-3.2c1.5 0 3.2.1 5.1.2 9.7 6.9 12.2 19.7 12.8 24.9h-13.2c.2-4.5 0-14.7-4.7-25.1zm-16.9 25.1h-13.1c.6-5.2 3.1-18 12.7-24.9.9-.1 1.8-.1 2.7-.1s1.7-.1 2.4-.1c-4.6 10.4-4.9 20.6-4.7 25.1zm-16.2 0h-12.6c1.1-5 4.8-16.9 16.6-23.9 2-.2 4.3-.4 6.7-.6-8.2 8-10.2 19.7-10.7 24.5zm24.4-25.1h5.1c5.1 10.3 5.3 20.8 5.1 25.1h-15.4c0-4.3.1-14.8 5.2-25.1zm18.9.5c2.1.2 4.2.3 6.5.6 12 6.9 15.8 19 16.9 24h-12.7c-.5-4.8-2.5-16.6-10.7-24.6zM120-47.7c9.3-4.6 27.4-11.6 50.3-11.6h3.3c24.4-.7 43.7 6.8 53.5 11.6-38.5 6.4-48 76.1-49.5 89.5h-6.5c-1.7-13.4-12.4-83.2-51.1-89.5zm25.4 104.3c.3-2.7.7-5.4 2.4-6.9 2-1.8 10.7-2.9 20-3.3h14c9.7.3 19 1.5 21.1 3.3 1.7 1.5 2 4.2 2.4 6.9.2 1.2.3 2.4.6 3.5-7-.9-20-2.3-30.5-1.9-3.1-.1-6.4-.1-9.7.1-5.6.2-13 .6-20.7 1.7.1-1.2.3-2.3.4-3.4zm-5.4 8.6l.5-.1c.1 0 1.4-.2 3.7-.5-9.6 7.9-12.5 18.6-13.3 23.1h-11.8c1-4.4 4.7-14.5 18.1-22 .9-.2 1.9-.4 2.8-.5zm-11.4 2.6c-9.3 7.6-11.9 16-12.7 19.9h-11.3c1.4-10.2 11.8-16.3 24-19.9zM91.2 98.3l-2.8-6.2h170.4l-2.8 6.2"/><path d="M92.4 110.2h-4.7c-.5 0-.6.2-.6.6v12.5c0 .4.1.6.6.6h4.7c2.5 0 5.6-1.4 5.6-4.7v-4.3c0-3.2-3.1-4.7-5.6-4.7zm2.4 8.7c0 1.3-1 2.1-2.3 2.1h-2v-7.9h2c1.4 0 2.3.8 2.3 2.1v3.7zm15.8 2.1H104v-2.7h5.6c.5 0 .6-.2.6-.6v-1.6c0-.4-.1-.6-.6-.6H104v-2.4h6.3c.5 0 .6-.2.6-.6v-1.7c0-.4-.1-.6-.6-.6h-9c-.5 0-.6.2-.6.6v12.5c0 .4.1.6.6.6h9.3c.5 0 .6-.2.6-.6v-1.7c0-.4-.1-.6-.6-.6zm9.5-5c-.8-.3-3.9-.8-3.9-2.1 0-.9 1.1-1.2 1.8-1.2.6 0 1.4.2 1.8.6.3.2.4.4.4.6.1.3.2.6.6.6h2c.5 0 .6-.1.6-.6 0-2.7-2.9-3.9-5.5-3.9-2.6.1-5 1.4-5 4.1 0 2.6 1.9 3.5 4 4.1 1.8.6 3.6.6 3.6 1.7 0 1.2-.9 1.4-2 1.4-.8 0-1.6-.2-2-.7-.3-.3-.4-.6-.4-.9 0-.5-.3-.6-.7-.6h-2c-.5 0-.6.1-.6.6 0 2.9 3 4.4 5.6 4.4 3.2 0 5.5-1.4 5.5-4.4-.1-2.7-2.3-3.3-3.8-3.7zm12.1 5h-1.3v-7.9h1.2c.5 0 .6-.2.6-.6v-1.7c0-.4-.1-.6-.6-.6h-5.8c-.5 0-.6.2-.6.6v1.7c0 .4.1.6.6.6h1.3v7.9h-1.3c-.5 0-.6.2-.6.6v1.6c0 .4.1.6.6.6h5.9c.5 0 .6-.2.6-.6v-1.6c0-.3-.1-.6-.6-.6zm8.5-8.2c1.4 0 2.1.6 2.4 1.3.1.3 0 .7.6.7h2c.5 0 .6-.1.6-.6 0-2.8-3-4.3-5.6-4.3-2.5 0-5.6 1.4-5.6 4.7v5.1c0 3.3 3.1 4.5 5.6 4.5 2.4 0 5.4-1.3 5.6-4.3v-3c0-.4-.1-.6-.6-.6h-4.6c-.5 0-.6.2-.6.6v1.6c0 .4.1.6.6.6h1.9c0 1.6-1 2.2-2.3 2.2-1.4 0-2.3-.8-2.3-2.1V115c0-1.3.9-2.2 2.3-2.2zm18.7-2.6h-2c-.4 0-.6.1-.6.6v7.2l-4.4-7.1c-.3-.4-.4-.7-.9-.7h-2c-.5 0-.6.2-.6.6v12.5c0 .5.2.6.6.6h2.1c.4 0 .6-.1.6-.6v-7.2l4.4 7.1c.3.4.4.7.9.7h1.9c.5 0 .6-.2.6-.6v-12.5c0-.5-.2-.6-.6-.6zm13.9-.6c-2.5 0-5.6 1.4-5.6 4.7v4.9c0 3.3 3.1 4.7 5.6 4.7s5.6-1.4 5.6-4.7v-4.9c.1-3.3-3.1-4.7-5.6-4.7zm2.4 9.3c0 1.3-1 2.1-2.3 2.1-1.4 0-2.3-.8-2.3-2.1v-4.4c0-1.3 1-2.1 2.3-2.1 1.4 0 2.3.8 2.3 2.1v4.4zm14.3-.2c1.3-.4 2.9-2 2.9-4.2 0-1.3-.4-2.5-1.2-3.3-.9-.9-1.9-1.3-4.2-1.3h-5.3c-.5 0-.6.2-.6.6v12.6c0 .5.2.6.6.6h2.1c.4 0 .6-.1.6-.6v-3.9c.7 0 1.6 0 1.9.4l.1.1 2.3 3.4c.3.4.5.6 1 .6h2.5c.4 0 .5-.4.3-.7l-3-4.3zm-1.8-2.5c-.2 0-.4.1-.9.1h-.1c-.5 0-1.2 0-2.3-.1v-3.4h2.8c1.1 0 1.9.7 1.9 1.8 0 .8-.6 1.4-1.4 1.6zm16.7 4.5h-6v-10.2c0-.5-.2-.6-.6-.6h-2.1c-.4 0-.6.1-.6.6v12.6c0 .4.1.6.6.6h8.7c.5 0 .6-.2.6-.6v-1.7c0-.4-.1-.7-.6-.7zm10.1-10.2c-.2-.4-.4-.6-.9-.6h-2c-.5 0-.7.2-.9.6l-4.5 12.6c-.1.3-.1.6.4.6h2.2c.5 0 .6-.1.8-.6l.6-1.7h5.1l.6 1.7c.2.5.3.6.8.6h2.2c.5 0 .5-.3.4-.6l-4.8-12.6zm-3.4 7.9l1.6-4.6 1.6 4.6h-3.2zm20.5-8.5h-2c-.4 0-.6.1-.6.6v7.3l-4.4-7.2c-.3-.4-.4-.7-.9-.7h-2c-.5 0-.6.2-.6.6v12.6c0 .5.2.6.6.6h2.1c.4 0 .6-.1.6-.6v-7.3l4.4 7.2c.3.4.4.7.9.7h1.9c.5 0 .6-.2.6-.6v-12.6c0-.5-.2-.6-.6-.6zm9 0h-4.7c-.5 0-.6.2-.6.6v12.6c0 .4.1.6.6.6h4.7c2.5 0 5.6-1.4 5.6-4.7v-4.4c.1-3.3-3.1-4.7-5.6-4.7zm2.4 8.8c0 1.3-1 2.1-2.3 2.1h-2v-8h2c1.4 0 2.3.8 2.3 2.1v3.8zm11.1-9.1c-2.5 0-5.6 1.4-5.6 4.7v4.9c0 3.3 3.1 4.7 5.6 4.7s5.6-1.4 5.6-4.7v-4.9c.1-3.3-3.1-4.7-5.6-4.7zm2.4 9.3c0 1.3-1 2.1-2.3 2.1-1.4 0-2.3-.8-2.3-2.1v-4.4c0-1.3 1-2.1 2.3-2.1 1.4 0 2.3.8 2.3 2.1v4.4z"/></g></svg>